<?xml version="1.0" encoding="utf-8"?>
<!-- Generator: Adobe Illustrator 23.0.1, SVG Export Plug-In . SVG Version: 6.00 Build 0)  -->
<svg version="1.1" id="Layer_1" xmlns="http://www.w3.org/2000/svg" xmlns:xlink="http://www.w3.org/1999/xlink" x="0px" y="0px"
	 viewBox="0 0 584.53 103.39" style="enable-background:new 0 0 584.53 103.39;" xml:space="preserve">
<g>
	<g>
		<path d="M42.05,27.58c-2.06,0-3.63,0.39-4.7,1.17c-1.07,0.79-1.81,2.13-2.23,4.02h10.02v22.88H34.87v46.87H7.42V55.65H0V32.77
			h7.42c0.17-9.07,3.03-16.1,8.6-21.09c5.56-4.99,13.38-7.48,23.44-7.48c1.15,0,3.05,0.08,5.69,0.25v23.37
			C43.65,27.66,42.62,27.58,42.05,27.58z"/>
		<path d="M55.94,3.89C58.82,1.3,62.66,0,67.44,0c4.7,0,8.49,1.3,11.38,3.89c2.88,2.6,4.33,5.88,4.33,9.83
			c0,3.88-1.44,7.09-4.33,9.65c-2.89,2.55-6.68,3.83-11.38,3.83c-4.78,0-8.62-1.28-11.5-3.83c-2.89-2.55-4.33-5.77-4.33-9.65
			C51.61,9.77,53.05,6.49,55.94,3.89z M81.04,32.77v69.75H53.59V32.77H81.04z"/>
		<path d="M128.66,35.93c4.04-2.43,8.24-3.65,12.61-3.65v29.31h-7.79c-5.19,0-9.01,0.91-11.44,2.72c-2.43,1.81-3.65,5.03-3.65,9.65
			v28.57H90.94V32.77h27.45v12.86C121.19,41.6,124.62,38.36,128.66,35.93z"/>
		<path d="M217.53,72.47h-43.9c0.24,3.46,1.03,5.83,2.35,7.11c1.32,1.28,3.05,1.92,5.19,1.92c2.97,0,5.11-1.36,6.43-4.08h29.06
			c-0.99,4.95-3.07,9.38-6.25,13.29c-3.17,3.92-7.17,7.01-12,9.28c-4.82,2.27-10.12,3.4-15.89,3.4c-6.93,0-13.09-1.44-18.49-4.33
			c-5.4-2.88-9.6-7.03-12.61-12.42c-3.01-5.4-4.51-11.73-4.51-18.99c0-7.25,1.5-13.58,4.51-18.98c3.01-5.4,7.21-9.54,12.61-12.43
			c5.4-2.88,11.56-4.33,18.49-4.33c6.92,0,13.09,1.42,18.49,4.27c5.4,2.84,9.6,6.91,12.61,12.18c3.01,5.28,4.51,11.5,4.51,18.67
			C218.15,68.76,217.95,70.58,217.53,72.47z M190.33,61.22c0-2.64-0.74-4.59-2.22-5.87c-1.49-1.28-3.34-1.92-5.56-1.92
			c-5.03,0-7.92,2.6-8.66,7.79H190.33z"/>
		<path d="M338.17,40.32c4.9,5.36,7.36,12.61,7.36,21.77v40.44H318.2V65.55c0-2.97-0.89-5.3-2.66-6.99
			c-1.78-1.69-4.14-2.54-7.11-2.54c-3.06,0-5.44,0.85-7.17,2.54c-1.73,1.69-2.6,4.02-2.6,6.99v36.98h-27.33V65.55
			c0-2.97-0.89-5.3-2.66-6.99c-1.77-1.69-4.14-2.54-7.11-2.54c-3.05,0-5.44,0.85-7.17,2.54c-1.73,1.69-2.6,4.02-2.6,6.99v36.98
			h-27.45V32.77h27.45v9.4c1.98-2.97,4.68-5.36,8.1-7.17c3.42-1.81,7.44-2.72,12.06-2.72c5.03,0,9.48,1.09,13.35,3.28
			c3.87,2.19,6.97,5.26,9.28,9.22c2.55-3.63,5.81-6.62,9.77-8.97c3.95-2.35,8.33-3.52,13.11-3.52
			C326.36,32.28,333.27,34.96,338.17,40.32z"/>
		<path d="M357.28,3.89C360.16,1.3,364,0,368.78,0c4.7,0,8.49,1.3,11.38,3.89c2.88,2.6,4.32,5.88,4.32,9.83
			c0,3.88-1.44,7.09-4.32,9.65c-2.89,2.55-6.68,3.83-11.38,3.83c-4.78,0-8.62-1.28-11.5-3.83s-4.33-5.77-4.33-9.65
			C352.95,9.77,354.39,6.49,357.28,3.89z M382.38,32.77v69.75h-27.45V32.77H382.38z"/>
		<path d="M459.86,40.32c4.49,5.36,6.74,12.61,6.74,21.77v40.44h-27.33V65.55c0-3.3-0.89-5.91-2.66-7.85
			c-1.78-1.94-4.14-2.91-7.11-2.91c-3.05,0-5.44,0.97-7.17,2.91c-1.73,1.94-2.6,4.56-2.6,7.85v36.98h-27.45V32.77h27.45v10.63
			c2.14-3.3,5.01-5.98,8.6-8.04c3.59-2.06,7.85-3.09,12.8-3.09C449.12,32.28,455.37,34.96,459.86,40.32z"/>
		<path d="M512.79,34.69c3.26,1.86,5.75,4.39,7.48,7.61V11.01h27.46v91.51h-27.46V93c-1.73,3.22-4.23,5.75-7.48,7.6
			c-3.25,1.86-7.16,2.78-11.68,2.78c-5.44,0-10.35-1.42-14.72-4.26c-4.37-2.84-7.81-6.97-10.33-12.37
			c-2.51-5.4-3.77-11.77-3.77-19.11c0-7.34,1.26-13.7,3.77-19.11c2.52-5.4,5.96-9.52,10.33-12.37c4.37-2.84,9.28-4.27,14.72-4.27
			C505.63,31.91,509.53,32.83,512.79,34.69z M502.96,58.99c-1.9,2.06-2.84,4.95-2.84,8.66c0,3.71,0.95,6.6,2.84,8.66
			c1.9,2.06,4.33,3.09,7.29,3.09c2.97,0,5.4-1.03,7.3-3.09c1.89-2.06,2.84-4.95,2.84-8.66c0-3.71-0.95-6.59-2.84-8.66
			c-1.9-2.06-4.33-3.09-7.3-3.09C507.29,55.9,504.85,56.93,502.96,58.99z"/>
	</g>
	<g>
		<path d="M557.33,79.21c2.89-2.6,6.72-3.89,11.5-3.89c4.7,0,8.49,1.3,11.38,3.89c2.88,2.6,4.33,5.88,4.33,9.83
			c0,3.88-1.44,7.1-4.33,9.65c-2.89,2.55-6.68,3.83-11.38,3.83c-4.78,0-8.62-1.27-11.5-3.83c-2.89-2.55-4.33-5.77-4.33-9.65
			C553,85.09,554.44,81.81,557.33,79.21z"/>
	</g>
</g>
</svg>
